{"title":"Brideshead Revisited.BBC.1981.Subs.Swe.Es.E02.Home.and.Abroad","uid":11898580,"size":367085998,"categoryP":"other","categoryS":"other","magnet":"?xt=urn:btih:c4ad8848472407527021aacb6e28692c2ace0264&amp;dn=Brideshead+Revisited.BBC.1981.Subs.Swe.Es.E02.Home.and.Abroad&amp;tr=udp%3A%2F%2Ftracker.openbittorrent.com%3A80&amp;tr=udp%3A%2F%2Fopen.demonii.com%3A1337&amp;tr=udp%3A%2F%2Ftracker.coppersurfer.tk%3A6969&amp;tr=udp%3A%2F%2Fexodus.desync.com%3A6969","seeders":0,"leechers":1,"uploader":"toots2boots","files":5,"time":1431239315,"description":"Swedish and Spanish Subs for Episode 1 included.\nEpisode 2: &quot;Home and Abroad&quot; (Original UK airdate 20 October 1981; 53 minutes) At Brideshead, Charles is introduced to Sebastian's younger sisters Julia and Cordelia and his older brother Brideshead ('Bridey'). The two young men decide to accept an invitation to Venice extended by Sebastian's father, Lord Marchmain, who lives there with his mistress Cara.\n\nGeneral\nComplete name                            : F:TV SeriesBrideshead Revisited BBC 1981Brideshead Revisited.BBC.1981.Subs.Swe.Es.E02.Home.and.AbroadBrideshead.Revisited.E02.Home.and.Abroad.XviD.AC3.avi\nFormat                                   : AVI\nFormat/Info                              : Audio Video Interleave\nFile size                                : 350 MiB\nDuration                                 : 53mn 18s\nOverall bit rate mode                    : Variable\nOverall bit rate                         : 918 Kbps\nWriting application                      : VirtualDubMod 1.5.4.1 (build 2178/release)\nWriting library                          : VirtualDubMod build 2178/release\n\nVideo\nID                                       : 0\nFormat                                   : MPEG-4 Visual\nFormat profile                           : Advanced Simple@L5\nFormat settings, BVOP                    : 1\nFormat settings, QPel                    : No\nFormat settings, GMC                     : No warppoints\nFormat settings, Matrix                  : Custom\nCodec ID                                 : XVID\nCodec ID/Hint                            : XviD\nDuration                                 : 53mn 18s\nBit rate                                 : 784 Kbps\nWidth                                    : 512 pixels\nHeight                                   : 384 pixels\nDisplay aspect ratio                     : 4:3\nFrame rate                               : 25.000 fps\nColor space                              : YUV\nChroma subsampling                       : 4:2:0\nBit depth                                : 8 bits\nScan type                                : Progressive\nCompression mode                         : Lossy\nBits/(Pixel*Frame)                       : 0.160\nStream size                              : 299 MiB (85%)\nWriting library                          : XviD 1.1.2 (UTC 2006-11-01)\n\nAudio\nID                                       : 1\nFormat                                   : MPEG Audio\nFormat version                           : Version 1\nFormat profile                           : Layer 3\nMode                                     : Joint stereo\nMode extension                           : MS Stereo\nCodec ID                                 : 55\nCodec ID/Hint                            : MP3\nDuration                                 : 53mn 17s\nBit rate mode                            : Variable\nBit rate                                 : 120 Kbps\nNominal bit rate                         : 128 Kbps\nChannel(s)                               : 2 channels\nSampling rate                            : 48.0 KHz\nCompression mode                         : Lossy\nStream size                              : 45.9 MiB (13%)\nAlignment                                : Aligned on interleaves\nInterleave, duration                     : 24 ms (0.60 video frame)\nInterleave, preload duration             : 522 ms\nWriting library                          : LAME3.97 \nEncoding settings                        : -m j -V 4 -q 2 -lowpass 17 --abr 128","torrent":{"xt":"urn:btih:c4ad8848472407527021aacb6e28692c2ace0264","amp;dn":"Brideshead+Revisited.BBC.1981.Subs.Swe.Es.E02.Home.and.Abroad","amp;tr":["udp%3A%2F%2Ftracker.openbittorrent.com%3A80","udp%3A%2F%2Fopen.demonii.com%3A1337","udp%3A%2F%2Ftracker.coppersurfer.tk%3A6969","udp%3A%2F%2Fexodus.desync.com%3A6969"],"infoHash":"c4ad8848472407527021aacb6e28692c2ace0264","infoHashBuffer":{"type":"Buffer","data":[196,173,136,72,71,36,7,82,112,33,170,203,110,40,105,44,42,206,2,100]},"announce":[],"urlList":[]}}